<svg xmlns="http://www.w3.org/2000/svg" viewBox="0 0 512 512">
  <defs>
    <linearGradient id="bg" x1="80" y1="64" x2="432" y2="448" gradientUnits="userSpaceOnUse">
      <stop stop-color="#8B84F4"/>
      <stop offset="1" stop-color="#5E57D6"/>
    </linearGradient>
    <filter id="shadow" x="-20%" y="-20%" width="140%" height="140%">
      <feDropShadow dx="0" dy="18" stdDeviation="20" flood-color="#403A99" flood-opacity=".28"/>
    </filter>
  </defs>
  <rect x="48" y="48" width="416" height="416" rx="128" fill="url(#bg)" filter="url(#shadow)"/>
  <path d="M256 126c9 58 31 80 89 89-58 9-80 31-89 89-9-58-31-80-89-89 58-9 80-31 89-89Z" fill="white"/>
  <path d="M354 292c5 32 17 44 49 49-32 5-44 17-49 49-5-32-17-44-49-49 32-5 44-17 49-49Z" fill="#BDF4E6"/>
  <circle cx="164" cy="334" r="22" fill="#E8E5FF"/>
</svg>
